<mxfile host="Electron" modified="2024-01-16T11:42:12.374Z" agent="Mozilla/5.0 (Windows NT 10.0; Win64; x64) AppleWebKit/537.36 (KHTML, like Gecko) draw.io/22.0.3 Chrome/114.0.5735.289 Electron/25.8.4 Safari/537.36" etag="dCmsBFnmYu2-zfaiARA9" version="22.0.3" type="device">
  <diagram name="Seite-1" id="SbXrCyBf6H_IGty1MTbS">
    <mxGraphModel dx="2572" dy="638" grid="1" gridSize="10" guides="1" tooltips="1" connect="1" arrows="1" fold="1" page="1" pageScale="1" pageWidth="827" pageHeight="1169" math="0" shadow="0">
      <root>
        <mxCell id="0" />
        <mxCell id="1" parent="0" />
        <mxCell id="d3Y048JEVlbYMzD7flnL-1" value="Email" style="shape=folder;fontStyle=1;spacingTop=10;tabWidth=40;tabHeight=14;tabPosition=left;html=1;whiteSpace=wrap;strokeColor=#000000;" parent="1" vertex="1">
          <mxGeometry x="-1350" y="70" width="70" height="50" as="geometry" />
        </mxCell>
        <mxCell id="d3Y048JEVlbYMzD7flnL-2" value="Security" style="shape=folder;fontStyle=1;spacingTop=10;tabWidth=40;tabHeight=14;tabPosition=left;html=1;whiteSpace=wrap;strokeColor=#000000;" parent="1" vertex="1">
          <mxGeometry x="-1580" y="20" width="70" height="50" as="geometry" />
        </mxCell>
        <mxCell id="d3Y048JEVlbYMzD7flnL-3" value="Friendlist" style="shape=folder;fontStyle=1;spacingTop=10;tabWidth=40;tabHeight=14;tabPosition=left;html=1;whiteSpace=wrap;strokeColor=#000000;" parent="1" vertex="1">
          <mxGeometry x="-1430" y="10" width="70" height="50" as="geometry" />
        </mxCell>
        <mxCell id="d3Y048JEVlbYMzD7flnL-4" value="Chat" style="shape=folder;fontStyle=1;spacingTop=10;tabWidth=40;tabHeight=14;tabPosition=left;html=1;whiteSpace=wrap;strokeColor=#000000;" parent="1" vertex="1">
          <mxGeometry x="-1280" y="140" width="70" height="50" as="geometry" />
        </mxCell>
        <mxCell id="d3Y048JEVlbYMzD7flnL-6" value="User" style="shape=folder;fontStyle=1;spacingTop=10;tabWidth=40;tabHeight=14;tabPosition=left;html=1;whiteSpace=wrap;strokeColor=#000000;" parent="1" vertex="1">
          <mxGeometry x="-1460" y="90" width="70" height="50" as="geometry" />
        </mxCell>
        <mxCell id="d3Y048JEVlbYMzD7flnL-7" value="ChessEngine" style="shape=folder;fontStyle=1;spacingTop=10;tabWidth=40;tabHeight=14;tabPosition=left;html=1;whiteSpace=wrap;strokeColor=#000000;" parent="1" vertex="1">
          <mxGeometry x="-1600" y="100" width="90" height="50" as="geometry" />
        </mxCell>
        <mxCell id="d3Y048JEVlbYMzD7flnL-8" value="ChessClub" style="shape=folder;fontStyle=1;spacingTop=10;tabWidth=40;tabHeight=14;tabPosition=left;html=1;whiteSpace=wrap;strokeColor=#000000;" parent="1" vertex="1">
          <mxGeometry x="-1410" y="210" width="70" height="50" as="geometry" />
        </mxCell>
        <mxCell id="d3Y048JEVlbYMzD7flnL-9" style="edgeStyle=orthogonalEdgeStyle;rounded=0;orthogonalLoop=1;jettySize=auto;html=1;entryX=0;entryY=0;entryDx=0;entryDy=32;entryPerimeter=0;strokeColor=#000000;" parent="1" source="d3Y048JEVlbYMzD7flnL-6" target="d3Y048JEVlbYMzD7flnL-1" edge="1">
          <mxGeometry relative="1" as="geometry" />
        </mxCell>
        <mxCell id="d3Y048JEVlbYMzD7flnL-10" style="edgeStyle=orthogonalEdgeStyle;rounded=0;orthogonalLoop=1;jettySize=auto;html=1;entryX=0.419;entryY=0.047;entryDx=0;entryDy=0;entryPerimeter=0;strokeColor=#000000;" parent="1" source="d3Y048JEVlbYMzD7flnL-3" target="d3Y048JEVlbYMzD7flnL-6" edge="1">
          <mxGeometry relative="1" as="geometry" />
        </mxCell>
        <mxCell id="d3Y048JEVlbYMzD7flnL-11" style="edgeStyle=orthogonalEdgeStyle;rounded=0;orthogonalLoop=1;jettySize=auto;html=1;entryX=0;entryY=0;entryDx=70;entryDy=41;entryPerimeter=0;strokeColor=#000000;" parent="1" source="d3Y048JEVlbYMzD7flnL-4" target="d3Y048JEVlbYMzD7flnL-6" edge="1">
          <mxGeometry relative="1" as="geometry" />
        </mxCell>
        <mxCell id="d3Y048JEVlbYMzD7flnL-12" style="edgeStyle=orthogonalEdgeStyle;rounded=0;orthogonalLoop=1;jettySize=auto;html=1;exitX=0.057;exitY=0;exitDx=0;exitDy=0;exitPerimeter=0;entryX=0;entryY=0;entryDx=0;entryDy=41;entryPerimeter=0;" parent="1" source="d3Y048JEVlbYMzD7flnL-18" target="d3Y048JEVlbYMzD7flnL-7" edge="1">
          <mxGeometry relative="1" as="geometry">
            <mxPoint x="-1529.97" y="280" as="sourcePoint" />
          </mxGeometry>
        </mxCell>
        <mxCell id="d3Y048JEVlbYMzD7flnL-13" style="edgeStyle=orthogonalEdgeStyle;rounded=0;orthogonalLoop=1;jettySize=auto;html=1;entryX=0.572;entryY=1.029;entryDx=0;entryDy=0;entryPerimeter=0;strokeColor=#000000;" parent="1" source="d3Y048JEVlbYMzD7flnL-8" target="d3Y048JEVlbYMzD7flnL-6" edge="1">
          <mxGeometry relative="1" as="geometry">
            <mxPoint x="-1405" y="180" as="targetPoint" />
          </mxGeometry>
        </mxCell>
        <mxCell id="d3Y048JEVlbYMzD7flnL-14" style="edgeStyle=orthogonalEdgeStyle;rounded=0;orthogonalLoop=1;jettySize=auto;html=1;entryX=0.25;entryY=1;entryDx=0;entryDy=0;entryPerimeter=0;exitX=0.125;exitY=0.003;exitDx=0;exitDy=0;exitPerimeter=0;" parent="1" source="d3Y048JEVlbYMzD7flnL-18" target="d3Y048JEVlbYMzD7flnL-6" edge="1">
          <mxGeometry relative="1" as="geometry">
            <mxPoint x="-1490" y="305.0000000000002" as="sourcePoint" />
          </mxGeometry>
        </mxCell>
        <mxCell id="d3Y048JEVlbYMzD7flnL-15" style="edgeStyle=orthogonalEdgeStyle;rounded=0;orthogonalLoop=1;jettySize=auto;html=1;entryX=0;entryY=0;entryDx=70;entryDy=41;entryPerimeter=0;strokeColor=#000000;" parent="1" source="d3Y048JEVlbYMzD7flnL-3" target="d3Y048JEVlbYMzD7flnL-1" edge="1">
          <mxGeometry relative="1" as="geometry" />
        </mxCell>
        <mxCell id="d3Y048JEVlbYMzD7flnL-16" style="edgeStyle=orthogonalEdgeStyle;rounded=0;orthogonalLoop=1;jettySize=auto;html=1;entryX=0;entryY=0;entryDx=0;entryDy=41;entryPerimeter=0;strokeColor=#000000;" parent="1" source="d3Y048JEVlbYMzD7flnL-2" target="d3Y048JEVlbYMzD7flnL-6" edge="1">
          <mxGeometry relative="1" as="geometry" />
        </mxCell>
        <mxCell id="d3Y048JEVlbYMzD7flnL-17" style="edgeStyle=orthogonalEdgeStyle;rounded=0;orthogonalLoop=1;jettySize=auto;html=1;entryX=0;entryY=0;entryDx=0;entryDy=41;entryPerimeter=0;strokeColor=#000000;" parent="1" source="d3Y048JEVlbYMzD7flnL-8" target="d3Y048JEVlbYMzD7flnL-4" edge="1">
          <mxGeometry relative="1" as="geometry" />
        </mxCell>
        <mxCell id="d3Y048JEVlbYMzD7flnL-18" value="Package" style="shape=folder;fontStyle=1;tabWidth=110;tabHeight=30;tabPosition=left;html=1;boundedLbl=1;labelInHeader=1;container=0;collapsible=0;whiteSpace=wrap;" parent="1" vertex="1">
          <mxGeometry x="-1626" y="360" width="770" height="1810" as="geometry" />
        </mxCell>
        <mxCell id="d3Y048JEVlbYMzD7flnL-19" value="ChessGame" style="html=1;strokeColor=none;resizeWidth=1;resizeHeight=1;fillColor=none;part=1;connectable=0;allowArrows=0;deletable=0;whiteSpace=wrap;" parent="1" vertex="1">
          <mxGeometry x="-1625" y="350" width="770" height="48.10126582278481" as="geometry">
            <mxPoint y="30" as="offset" />
          </mxGeometry>
        </mxCell>
        <mxCell id="d3Y048JEVlbYMzD7flnL-23" value="MatchmakkingService" style="swimlane;fontStyle=1;align=center;verticalAlign=top;childLayout=stackLayout;horizontal=1;startSize=26;horizontalStack=0;resizeParent=1;resizeParentMax=0;resizeLast=0;collapsible=1;marginBottom=0;whiteSpace=wrap;html=1;fillColor=#FFFFFF;" parent="1" vertex="1">
          <mxGeometry x="-1540" y="580" width="480" height="972.6176190476195" as="geometry" />
        </mxCell>
        <mxCell id="d3Y048JEVlbYMzD7flnL-24" value="-CHESSGAMEREPOSITORY:ChessGameRepositoy" style="text;strokeColor=none;fillColor=#FFFFFF;align=left;verticalAlign=top;spacingLeft=4;spacingRight=4;overflow=hidden;rotatable=0;points=[[0,0.5],[1,0.5]];portConstraint=eastwest;whiteSpace=wrap;html=1;" parent="d3Y048JEVlbYMzD7flnL-23" vertex="1">
          <mxGeometry y="26" width="480" height="21.714285714285715" as="geometry" />
        </mxCell>
        <mxCell id="oqEVKLC-qFjsT6lovD80-22" value="-MATCHREQUESTREPOSITORY:MatchRequestRepository" style="text;strokeColor=none;fillColor=#FFFFFF;align=left;verticalAlign=top;spacingLeft=4;spacingRight=4;overflow=hidden;rotatable=0;points=[[0,0.5],[1,0.5]];portConstraint=eastwest;whiteSpace=wrap;html=1;" parent="d3Y048JEVlbYMzD7flnL-23" vertex="1">
          <mxGeometry y="47.714285714285715" width="480" height="21.714285714285715" as="geometry" />
        </mxCell>
        <mxCell id="oqEVKLC-qFjsT6lovD80-23" value="-USERREPOSITORY:UserRepository" style="text;strokeColor=none;fillColor=#FFFFFF;align=left;verticalAlign=top;spacingLeft=4;spacingRight=4;overflow=hidden;rotatable=0;points=[[0,0.5],[1,0.5]];portConstraint=eastwest;whiteSpace=wrap;html=1;" parent="d3Y048JEVlbYMzD7flnL-23" vertex="1">
          <mxGeometry y="69.42857142857143" width="480" height="21.714285714285715" as="geometry" />
        </mxCell>
        <mxCell id="FsZoKDv0sJ-615UwoabP-8" value="-PGNREPOSITORY:PgnRepository" style="text;strokeColor=none;fillColor=#FFFFFF;align=left;verticalAlign=top;spacingLeft=4;spacingRight=4;overflow=hidden;rotatable=0;points=[[0,0.5],[1,0.5]];portConstraint=eastwest;whiteSpace=wrap;html=1;" vertex="1" parent="d3Y048JEVlbYMzD7flnL-23">
          <mxGeometry y="91.14285714285714" width="480" height="21.714285714285715" as="geometry" />
        </mxCell>
        <mxCell id="d3Y048JEVlbYMzD7flnL-25" value="+ onGoingGame : List&amp;lt;ChessGame&amp;gt;" style="text;strokeColor=none;fillColor=#FFFFFF;align=left;verticalAlign=top;spacingLeft=4;spacingRight=4;overflow=hidden;rotatable=0;points=[[0,0.5],[1,0.5]];portConstraint=eastwest;whiteSpace=wrap;html=1;" parent="d3Y048JEVlbYMzD7flnL-23" vertex="1">
          <mxGeometry y="112.85714285714286" width="480" height="27.142857142857142" as="geometry" />
        </mxCell>
        <mxCell id="d3Y048JEVlbYMzD7flnL-26" value="+ matchmaking : Queue&amp;lt;Long&amp;gt;&amp;nbsp;" style="text;strokeColor=none;fillColor=#FFFFFF;align=left;verticalAlign=top;spacingLeft=4;spacingRight=4;overflow=hidden;rotatable=0;points=[[0,0.5],[1,0.5]];portConstraint=eastwest;whiteSpace=wrap;html=1;" parent="d3Y048JEVlbYMzD7flnL-23" vertex="1">
          <mxGeometry y="140" width="480" height="21.714285714285715" as="geometry" />
        </mxCell>
        <mxCell id="oqEVKLC-qFjsT6lovD80-21" value="+ boards: Map&amp;lt;Long, BoardManager&amp;gt;&amp;nbsp;" style="text;strokeColor=none;fillColor=#FFFFFF;align=left;verticalAlign=top;spacingLeft=4;spacingRight=4;overflow=hidden;rotatable=0;points=[[0,0.5],[1,0.5]];portConstraint=eastwest;whiteSpace=wrap;html=1;" parent="d3Y048JEVlbYMzD7flnL-23" vertex="1">
          <mxGeometry y="161.71428571428572" width="480" height="21.714285714285715" as="geometry" />
        </mxCell>
        <mxCell id="oqEVKLC-qFjsT6lovD80-24" value="+ csvReader: CSVReader" style="text;strokeColor=none;fillColor=#FFFFFF;align=left;verticalAlign=top;spacingLeft=4;spacingRight=4;overflow=hidden;rotatable=0;points=[[0,0.5],[1,0.5]];portConstraint=eastwest;whiteSpace=wrap;html=1;" parent="d3Y048JEVlbYMzD7flnL-23" vertex="1">
          <mxGeometry y="183.42857142857144" width="480" height="21.714285714285715" as="geometry" />
        </mxCell>
        <mxCell id="d3Y048JEVlbYMzD7flnL-27" value="" style="line;strokeWidth=1;fillColor=#FFFFFF;align=left;verticalAlign=middle;spacingTop=-1;spacingLeft=3;spacingRight=3;rotatable=0;labelPosition=right;points=[];portConstraint=eastwest;strokeColor=inherit;" parent="d3Y048JEVlbYMzD7flnL-23" vertex="1">
          <mxGeometry y="205.14285714285717" width="480" height="3.6190476190476204" as="geometry" />
        </mxCell>
        <mxCell id="d3Y048JEVlbYMzD7flnL-28" value="+queueMatch():void" style="text;strokeColor=none;fillColor=#FFFFFF;align=left;verticalAlign=top;spacingLeft=4;spacingRight=4;overflow=hidden;rotatable=0;points=[[0,0.5],[1,0.5]];portConstraint=eastwest;whiteSpace=wrap;html=1;" parent="d3Y048JEVlbYMzD7flnL-23" vertex="1">
          <mxGeometry y="208.7619047619048" width="480" height="28.952380952380963" as="geometry" />
        </mxCell>
        <mxCell id="d3Y048JEVlbYMzD7flnL-29" value="+dequeueMatch():void" style="text;strokeColor=none;fillColor=#FFFFFF;align=left;verticalAlign=top;spacingLeft=4;spacingRight=4;overflow=hidden;rotatable=0;points=[[0,0.5],[1,0.5]];portConstraint=eastwest;whiteSpace=wrap;html=1;" parent="d3Y048JEVlbYMzD7flnL-23" vertex="1">
          <mxGeometry y="237.71428571428575" width="480" height="28.952380952380963" as="geometry" />
        </mxCell>
        <mxCell id="d3Y048JEVlbYMzD7flnL-30" value="+requestMatch(Friend:UserRequestHolder):void" style="text;strokeColor=none;fillColor=#FFFFFF;align=left;verticalAlign=top;spacingLeft=4;spacingRight=4;overflow=hidden;rotatable=0;points=[[0,0.5],[1,0.5]];portConstraint=eastwest;whiteSpace=wrap;html=1;" parent="d3Y048JEVlbYMzD7flnL-23" vertex="1">
          <mxGeometry y="266.66666666666674" width="480" height="28.952380952380963" as="geometry" />
        </mxCell>
        <mxCell id="d3Y048JEVlbYMzD7flnL-31" value="+denyMatchRequest():void" style="text;strokeColor=none;fillColor=#FFFFFF;align=left;verticalAlign=top;spacingLeft=4;spacingRight=4;overflow=hidden;rotatable=0;points=[[0,0.5],[1,0.5]];portConstraint=eastwest;whiteSpace=wrap;html=1;" parent="d3Y048JEVlbYMzD7flnL-23" vertex="1">
          <mxGeometry y="295.6190476190477" width="480" height="28.952380952380963" as="geometry" />
        </mxCell>
        <mxCell id="oqEVKLC-qFjsT6lovD80-26" value="+checkForMatch():void" style="text;strokeColor=none;fillColor=#FFFFFF;align=left;verticalAlign=top;spacingLeft=4;spacingRight=4;overflow=hidden;rotatable=0;points=[[0,0.5],[1,0.5]];portConstraint=eastwest;whiteSpace=wrap;html=1;" parent="d3Y048JEVlbYMzD7flnL-23" vertex="1">
          <mxGeometry y="324.57142857142867" width="480" height="28.952380952380963" as="geometry" />
        </mxCell>
        <mxCell id="oqEVKLC-qFjsT6lovD80-25" value="+cancelMatchRequest():void" style="text;strokeColor=none;fillColor=#FFFFFF;align=left;verticalAlign=top;spacingLeft=4;spacingRight=4;overflow=hidden;rotatable=0;points=[[0,0.5],[1,0.5]];portConstraint=eastwest;whiteSpace=wrap;html=1;" parent="d3Y048JEVlbYMzD7flnL-23" vertex="1">
          <mxGeometry y="353.52380952380963" width="480" height="28.952380952380963" as="geometry" />
        </mxCell>
        <mxCell id="d3Y048JEVlbYMzD7flnL-32" value="+acceptMatchRequest(Friend:UserRequestHolder):void" style="text;strokeColor=none;fillColor=#FFFFFF;align=left;verticalAlign=top;spacingLeft=4;spacingRight=4;overflow=hidden;rotatable=0;points=[[0,0.5],[1,0.5]];portConstraint=eastwest;whiteSpace=wrap;html=1;" parent="d3Y048JEVlbYMzD7flnL-23" vertex="1">
          <mxGeometry y="382.4761904761906" width="480" height="28.952380952380963" as="geometry" />
        </mxCell>
        <mxCell id="d3Y048JEVlbYMzD7flnL-33" value="+getMyCurrentMatch():ChessGame" style="text;strokeColor=none;fillColor=#FFFFFF;align=left;verticalAlign=top;spacingLeft=4;spacingRight=4;overflow=hidden;rotatable=0;points=[[0,0.5],[1,0.5]];portConstraint=eastwest;whiteSpace=wrap;html=1;" parent="d3Y048JEVlbYMzD7flnL-23" vertex="1">
          <mxGeometry y="411.42857142857156" width="480" height="28.952380952380963" as="geometry" />
        </mxCell>
        <mxCell id="d3Y048JEVlbYMzD7flnL-34" value="+getMyCurrentMatchID():String" style="text;strokeColor=none;fillColor=#FFFFFF;align=left;verticalAlign=top;spacingLeft=4;spacingRight=4;overflow=hidden;rotatable=0;points=[[0,0.5],[1,0.5]];portConstraint=eastwest;whiteSpace=wrap;html=1;" parent="d3Y048JEVlbYMzD7flnL-23" vertex="1">
          <mxGeometry y="440.3809523809525" width="480" height="28.952380952380963" as="geometry" />
        </mxCell>
        <mxCell id="oqEVKLC-qFjsT6lovD80-27" value="+getMyCurrentEnemy():long" style="text;strokeColor=none;fillColor=#FFFFFF;align=left;verticalAlign=top;spacingLeft=4;spacingRight=4;overflow=hidden;rotatable=0;points=[[0,0.5],[1,0.5]];portConstraint=eastwest;whiteSpace=wrap;html=1;" parent="d3Y048JEVlbYMzD7flnL-23" vertex="1">
          <mxGeometry y="469.3333333333335" width="480" height="28.952380952380963" as="geometry" />
        </mxCell>
        <mxCell id="oqEVKLC-qFjsT6lovD80-28" value="+getMyMatchInvitations():UserRequestHolder[]" style="text;strokeColor=none;fillColor=#FFFFFF;align=left;verticalAlign=top;spacingLeft=4;spacingRight=4;overflow=hidden;rotatable=0;points=[[0,0.5],[1,0.5]];portConstraint=eastwest;whiteSpace=wrap;html=1;" parent="d3Y048JEVlbYMzD7flnL-23" vertex="1">
          <mxGeometry y="498.28571428571445" width="480" height="28.952380952380963" as="geometry" />
        </mxCell>
        <mxCell id="oqEVKLC-qFjsT6lovD80-29" value="+getMyMatchRequest():UserRequestHolder" style="text;strokeColor=none;fillColor=#FFFFFF;align=left;verticalAlign=top;spacingLeft=4;spacingRight=4;overflow=hidden;rotatable=0;points=[[0,0.5],[1,0.5]];portConstraint=eastwest;whiteSpace=wrap;html=1;" parent="d3Y048JEVlbYMzD7flnL-23" vertex="1">
          <mxGeometry y="527.2380952380954" width="480" height="28.952380952380963" as="geometry" />
        </mxCell>
        <mxCell id="oqEVKLC-qFjsT6lovD80-30" value="+getMyCurrentFrame(frameID:int):int[][][]" style="text;strokeColor=none;fillColor=#FFFFFF;align=left;verticalAlign=top;spacingLeft=4;spacingRight=4;overflow=hidden;rotatable=0;points=[[0,0.5],[1,0.5]];portConstraint=eastwest;whiteSpace=wrap;html=1;" parent="d3Y048JEVlbYMzD7flnL-23" vertex="1">
          <mxGeometry y="556.1904761904764" width="480" height="28.952380952380963" as="geometry" />
        </mxCell>
        <mxCell id="oqEVKLC-qFjsT6lovD80-31" value="+makeAMove(from:int, to:int):boolean" style="text;strokeColor=none;fillColor=#FFFFFF;align=left;verticalAlign=top;spacingLeft=4;spacingRight=4;overflow=hidden;rotatable=0;points=[[0,0.5],[1,0.5]];portConstraint=eastwest;whiteSpace=wrap;html=1;" parent="d3Y048JEVlbYMzD7flnL-23" vertex="1">
          <mxGeometry y="585.1428571428573" width="480" height="28.952380952380963" as="geometry" />
        </mxCell>
        <mxCell id="oqEVKLC-qFjsT6lovD80-32" value="+transofrmBauer(id:int):boolean" style="text;strokeColor=none;fillColor=#FFFFFF;align=left;verticalAlign=top;spacingLeft=4;spacingRight=4;overflow=hidden;rotatable=0;points=[[0,0.5],[1,0.5]];portConstraint=eastwest;whiteSpace=wrap;html=1;" parent="d3Y048JEVlbYMzD7flnL-23" vertex="1">
          <mxGeometry y="614.0952380952383" width="480" height="28.952380952380963" as="geometry" />
        </mxCell>
        <mxCell id="d3Y048JEVlbYMzD7flnL-35" value="- startMatch (playerWhite:Long, playerBlack:Long, name:String, matchLenght:Long):void" style="text;strokeColor=none;fillColor=#FFFFFF;align=left;verticalAlign=top;spacingLeft=4;spacingRight=4;overflow=hidden;rotatable=0;points=[[0,0.5],[1,0.5]];portConstraint=eastwest;whiteSpace=wrap;html=1;" parent="d3Y048JEVlbYMzD7flnL-23" vertex="1">
          <mxGeometry y="643.0476190476193" width="480" height="27.14" as="geometry" />
        </mxCell>
        <mxCell id="d3Y048JEVlbYMzD7flnL-36" value="-endMyMatch():void" style="text;strokeColor=none;fillColor=#FFFFFF;align=left;verticalAlign=top;spacingLeft=4;spacingRight=4;overflow=hidden;rotatable=0;points=[[0,0.5],[1,0.5]];portConstraint=eastwest;whiteSpace=wrap;html=1;" parent="d3Y048JEVlbYMzD7flnL-23" vertex="1">
          <mxGeometry y="670.1876190476193" width="480" height="21.53" as="geometry" />
        </mxCell>
        <mxCell id="oqEVKLC-qFjsT6lovD80-33" value="+ getCSVFileInfo(fileContent:String):String[]" style="text;strokeColor=none;fillColor=#FFFFFF;align=left;verticalAlign=top;spacingLeft=4;spacingRight=4;overflow=hidden;rotatable=0;points=[[0,0.5],[1,0.5]];portConstraint=eastwest;whiteSpace=wrap;html=1;" parent="d3Y048JEVlbYMzD7flnL-23" vertex="1">
          <mxGeometry y="691.7176190476192" width="480" height="28.09" as="geometry" />
        </mxCell>
        <mxCell id="oqEVKLC-qFjsT6lovD80-40" value="+ startPuzzle():void" style="text;strokeColor=none;fillColor=#FFFFFF;align=left;verticalAlign=top;spacingLeft=4;spacingRight=4;overflow=hidden;rotatable=0;points=[[0,0.5],[1,0.5]];portConstraint=eastwest;whiteSpace=wrap;html=1;" parent="d3Y048JEVlbYMzD7flnL-23" vertex="1">
          <mxGeometry y="719.8076190476193" width="480" height="28.09" as="geometry" />
        </mxCell>
        <mxCell id="oqEVKLC-qFjsT6lovD80-38" value="+ endPuzzle():void" style="text;strokeColor=none;fillColor=#FFFFFF;align=left;verticalAlign=top;spacingLeft=4;spacingRight=4;overflow=hidden;rotatable=0;points=[[0,0.5],[1,0.5]];portConstraint=eastwest;whiteSpace=wrap;html=1;" parent="d3Y048JEVlbYMzD7flnL-23" vertex="1">
          <mxGeometry y="747.8976190476193" width="480" height="28.09" as="geometry" />
        </mxCell>
        <mxCell id="oqEVKLC-qFjsT6lovD80-39" value="+ surrender():void" style="text;strokeColor=none;fillColor=#FFFFFF;align=left;verticalAlign=top;spacingLeft=4;spacingRight=4;overflow=hidden;rotatable=0;points=[[0,0.5],[1,0.5]];portConstraint=eastwest;whiteSpace=wrap;html=1;" parent="d3Y048JEVlbYMzD7flnL-23" vertex="1">
          <mxGeometry y="775.9876190476193" width="480" height="28.09" as="geometry" />
        </mxCell>
        <mxCell id="oqEVKLC-qFjsT6lovD80-37" value="+ getCurrentStreamingFrame(frameId:int, gameId:long, userId:long):int[][][]" style="text;strokeColor=none;fillColor=#FFFFFF;align=left;verticalAlign=top;spacingLeft=4;spacingRight=4;overflow=hidden;rotatable=0;points=[[0,0.5],[1,0.5]];portConstraint=eastwest;whiteSpace=wrap;html=1;" parent="d3Y048JEVlbYMzD7flnL-23" vertex="1">
          <mxGeometry y="804.0776190476194" width="480" height="28.09" as="geometry" />
        </mxCell>
        <mxCell id="oqEVKLC-qFjsT6lovD80-36" value="+ liveMatch(gameId:long):ChessGame" style="text;strokeColor=none;fillColor=#FFFFFF;align=left;verticalAlign=top;spacingLeft=4;spacingRight=4;overflow=hidden;rotatable=0;points=[[0,0.5],[1,0.5]];portConstraint=eastwest;whiteSpace=wrap;html=1;" parent="d3Y048JEVlbYMzD7flnL-23" vertex="1">
          <mxGeometry y="832.1676190476194" width="480" height="28.09" as="geometry" />
        </mxCell>
        <mxCell id="oqEVKLC-qFjsT6lovD80-35" value="+ allMatches():List&amp;lt;ChessGame&amp;gt;" style="text;strokeColor=none;fillColor=#FFFFFF;align=left;verticalAlign=top;spacingLeft=4;spacingRight=4;overflow=hidden;rotatable=0;points=[[0,0.5],[1,0.5]];portConstraint=eastwest;whiteSpace=wrap;html=1;" parent="d3Y048JEVlbYMzD7flnL-23" vertex="1">
          <mxGeometry y="860.2576190476194" width="480" height="28.09" as="geometry" />
        </mxCell>
        <mxCell id="FsZoKDv0sJ-615UwoabP-9" value="+ findPGNByPgnId(pgnId:long):PGN" style="text;strokeColor=none;fillColor=#FFFFFF;align=left;verticalAlign=top;spacingLeft=4;spacingRight=4;overflow=hidden;rotatable=0;points=[[0,0.5],[1,0.5]];portConstraint=eastwest;whiteSpace=wrap;html=1;" vertex="1" parent="d3Y048JEVlbYMzD7flnL-23">
          <mxGeometry y="888.3476190476194" width="480" height="28.09" as="geometry" />
        </mxCell>
        <mxCell id="FsZoKDv0sJ-615UwoabP-10" value="+ savePGN(game:ChessGame,board:BoardManager):void" style="text;strokeColor=none;fillColor=#FFFFFF;align=left;verticalAlign=top;spacingLeft=4;spacingRight=4;overflow=hidden;rotatable=0;points=[[0,0.5],[1,0.5]];portConstraint=eastwest;whiteSpace=wrap;html=1;" vertex="1" parent="d3Y048JEVlbYMzD7flnL-23">
          <mxGeometry y="916.4376190476195" width="480" height="28.09" as="geometry" />
        </mxCell>
        <mxCell id="oqEVKLC-qFjsT6lovD80-34" value="+ createPGNinfo(chessGame:ChessGame, board:ChessBoard):String" style="text;strokeColor=none;fillColor=#FFFFFF;align=left;verticalAlign=top;spacingLeft=4;spacingRight=4;overflow=hidden;rotatable=0;points=[[0,0.5],[1,0.5]];portConstraint=eastwest;whiteSpace=wrap;html=1;" parent="d3Y048JEVlbYMzD7flnL-23" vertex="1">
          <mxGeometry y="944.5276190476195" width="480" height="28.09" as="geometry" />
        </mxCell>
        <mxCell id="d3Y048JEVlbYMzD7flnL-37" value="&amp;lt;&amp;lt;interface&amp;gt;&amp;gt;&lt;br&gt;ChessgameRepositoy" style="swimlane;fontStyle=0;childLayout=stackLayout;horizontal=1;startSize=26;fillColor=#FFFFFF;horizontalStack=0;resizeParent=1;resizeParentMax=0;resizeLast=0;collapsible=1;marginBottom=0;whiteSpace=wrap;html=1;" parent="1" vertex="1">
          <mxGeometry x="-1429.9969230769232" y="430" width="138.2051282051282" height="96.57142857142858" as="geometry" />
        </mxCell>
        <mxCell id="d3Y048JEVlbYMzD7flnL-38" value="+ field: type" style="text;strokeColor=none;fillColor=#FFFFFF;align=left;verticalAlign=top;spacingLeft=4;spacingRight=4;overflow=hidden;rotatable=0;points=[[0,0.5],[1,0.5]];portConstraint=eastwest;whiteSpace=wrap;html=1;" parent="d3Y048JEVlbYMzD7flnL-37" vertex="1">
          <mxGeometry y="26" width="138.2051282051282" height="23.523809523809526" as="geometry" />
        </mxCell>
        <mxCell id="d3Y048JEVlbYMzD7flnL-39" value="+ field: type" style="text;strokeColor=none;fillColor=#FFFFFF;align=left;verticalAlign=top;spacingLeft=4;spacingRight=4;overflow=hidden;rotatable=0;points=[[0,0.5],[1,0.5]];portConstraint=eastwest;whiteSpace=wrap;html=1;" parent="d3Y048JEVlbYMzD7flnL-37" vertex="1">
          <mxGeometry y="49.523809523809526" width="138.2051282051282" height="23.523809523809526" as="geometry" />
        </mxCell>
        <mxCell id="d3Y048JEVlbYMzD7flnL-40" value="+ field: type" style="text;strokeColor=none;fillColor=#FFFFFF;align=left;verticalAlign=top;spacingLeft=4;spacingRight=4;overflow=hidden;rotatable=0;points=[[0,0.5],[1,0.5]];portConstraint=eastwest;whiteSpace=wrap;html=1;" parent="d3Y048JEVlbYMzD7flnL-37" vertex="1">
          <mxGeometry y="73.04761904761905" width="138.2051282051282" height="23.523809523809526" as="geometry" />
        </mxCell>
        <mxCell id="d3Y048JEVlbYMzD7flnL-20" style="edgeStyle=orthogonalEdgeStyle;rounded=0;orthogonalLoop=1;jettySize=auto;html=1;exitX=0.75;exitY=0;exitDx=0;exitDy=0;fillColor=#FFFFFF;" parent="1" source="d3Y048JEVlbYMzD7flnL-23" target="d3Y048JEVlbYMzD7flnL-40" edge="1">
          <mxGeometry relative="1" as="geometry" />
        </mxCell>
        <mxCell id="d3Y048JEVlbYMzD7flnL-21" value="1" style="edgeLabel;html=1;align=center;verticalAlign=middle;resizable=0;points=[];fillColor=#FFFFFF;" parent="d3Y048JEVlbYMzD7flnL-20" vertex="1" connectable="0">
          <mxGeometry x="-0.7678" y="2" relative="1" as="geometry">
            <mxPoint as="offset" />
          </mxGeometry>
        </mxCell>
        <mxCell id="d3Y048JEVlbYMzD7flnL-22" value="1" style="edgeLabel;html=1;align=center;verticalAlign=middle;resizable=0;points=[];fillColor=#FFFFFF;" parent="d3Y048JEVlbYMzD7flnL-20" vertex="1" connectable="0">
          <mxGeometry x="0.6353" y="-1" relative="1" as="geometry">
            <mxPoint as="offset" />
          </mxGeometry>
        </mxCell>
        <mxCell id="d3Y048JEVlbYMzD7flnL-41" value="MatchmarkingController" style="swimlane;fontStyle=1;align=center;verticalAlign=top;childLayout=stackLayout;horizontal=1;startSize=26;horizontalStack=0;resizeParent=1;resizeParentMax=0;resizeLast=0;collapsible=1;marginBottom=0;whiteSpace=wrap;html=1;fillColor=#FFFFFF;" parent="1" vertex="1">
          <mxGeometry x="-1559.9992307692307" y="1629.9987511230906" width="520" height="529.0404761904763" as="geometry" />
        </mxCell>
        <mxCell id="d3Y048JEVlbYMzD7flnL-42" value="- MATCHMAKINGSERVICE : MatchmarkingService" style="text;strokeColor=none;fillColor=#FFFFFF;align=left;verticalAlign=top;spacingLeft=4;spacingRight=4;overflow=hidden;rotatable=0;points=[[0,0.5],[1,0.5]];portConstraint=eastwest;whiteSpace=wrap;html=1;" parent="d3Y048JEVlbYMzD7flnL-41" vertex="1">
          <mxGeometry y="26" width="520" height="21.714285714285715" as="geometry" />
        </mxCell>
        <mxCell id="d3Y048JEVlbYMzD7flnL-43" value="" style="line;strokeWidth=1;fillColor=#FFFFFF;align=left;verticalAlign=middle;spacingTop=-1;spacingLeft=3;spacingRight=3;rotatable=0;labelPosition=right;points=[];portConstraint=eastwest;strokeColor=inherit;" parent="d3Y048JEVlbYMzD7flnL-41" vertex="1">
          <mxGeometry y="47.714285714285715" width="520" height="18.0952380952381" as="geometry" />
        </mxCell>
        <mxCell id="d3Y048JEVlbYMzD7flnL-44" value="+queueMatch():void" style="text;strokeColor=none;fillColor=#FFFFFF;align=left;verticalAlign=top;spacingLeft=4;spacingRight=4;overflow=hidden;rotatable=0;points=[[0,0.5],[1,0.5]];portConstraint=eastwest;whiteSpace=wrap;html=1;" parent="d3Y048JEVlbYMzD7flnL-41" vertex="1">
          <mxGeometry y="65.80952380952381" width="520" height="28.952380952380963" as="geometry" />
        </mxCell>
        <mxCell id="d3Y048JEVlbYMzD7flnL-45" value="+dequeueMatch():void" style="text;strokeColor=none;fillColor=#FFFFFF;align=left;verticalAlign=top;spacingLeft=4;spacingRight=4;overflow=hidden;rotatable=0;points=[[0,0.5],[1,0.5]];portConstraint=eastwest;whiteSpace=wrap;html=1;" parent="d3Y048JEVlbYMzD7flnL-41" vertex="1">
          <mxGeometry y="94.76190476190477" width="520" height="28.952380952380963" as="geometry" />
        </mxCell>
        <mxCell id="d3Y048JEVlbYMzD7flnL-46" value="+requestMatch(Friend:UserRequestHolder):void" style="text;strokeColor=none;fillColor=#FFFFFF;align=left;verticalAlign=top;spacingLeft=4;spacingRight=4;overflow=hidden;rotatable=0;points=[[0,0.5],[1,0.5]];portConstraint=eastwest;whiteSpace=wrap;html=1;" parent="d3Y048JEVlbYMzD7flnL-41" vertex="1">
          <mxGeometry y="123.71428571428574" width="520" height="28.952380952380963" as="geometry" />
        </mxCell>
        <mxCell id="d3Y048JEVlbYMzD7flnL-47" value="+cancelMatchRequest():void" style="text;strokeColor=none;fillColor=#FFFFFF;align=left;verticalAlign=top;spacingLeft=4;spacingRight=4;overflow=hidden;rotatable=0;points=[[0,0.5],[1,0.5]];portConstraint=eastwest;whiteSpace=wrap;html=1;" parent="d3Y048JEVlbYMzD7flnL-41" vertex="1">
          <mxGeometry y="152.66666666666669" width="520" height="28.952380952380963" as="geometry" />
        </mxCell>
        <mxCell id="d3Y048JEVlbYMzD7flnL-48" value="+acceptMatchRequest(Friend:UserRequestHolder):void" style="text;strokeColor=none;fillColor=#FFFFFF;align=left;verticalAlign=top;spacingLeft=4;spacingRight=4;overflow=hidden;rotatable=0;points=[[0,0.5],[1,0.5]];portConstraint=eastwest;whiteSpace=wrap;html=1;" parent="d3Y048JEVlbYMzD7flnL-41" vertex="1">
          <mxGeometry y="181.61904761904765" width="520" height="28.952380952380963" as="geometry" />
        </mxCell>
        <mxCell id="d3Y048JEVlbYMzD7flnL-49" value="+getMyCurrentMatchID():ResponseEntity&amp;lt;ChessGame&amp;gt;&amp;nbsp;" style="text;strokeColor=none;fillColor=#FFFFFF;align=left;verticalAlign=top;spacingLeft=4;spacingRight=4;overflow=hidden;rotatable=0;points=[[0,0.5],[1,0.5]];portConstraint=eastwest;whiteSpace=wrap;html=1;" parent="d3Y048JEVlbYMzD7flnL-41" vertex="1">
          <mxGeometry y="210.5714285714286" width="520" height="28.952380952380963" as="geometry" />
        </mxCell>
        <mxCell id="d3Y048JEVlbYMzD7flnL-50" value="+getMyMatchRequest():ResponseEntity&amp;lt;UserRequestHolder&amp;gt;" style="text;strokeColor=none;fillColor=#FFFFFF;align=left;verticalAlign=top;spacingLeft=4;spacingRight=4;overflow=hidden;rotatable=0;points=[[0,0.5],[1,0.5]];portConstraint=eastwest;whiteSpace=wrap;html=1;" parent="d3Y048JEVlbYMzD7flnL-41" vertex="1">
          <mxGeometry y="239.52380952380958" width="520" height="28.952380952380963" as="geometry" />
        </mxCell>
        <mxCell id="d3Y048JEVlbYMzD7flnL-51" value="+getMyMatchInvitations():ResponseEntity&amp;lt;UserRequestHolder[]&amp;gt;" style="text;strokeColor=none;fillColor=#FFFFFF;align=left;verticalAlign=top;spacingLeft=4;spacingRight=4;overflow=hidden;rotatable=0;points=[[0,0.5],[1,0.5]];portConstraint=eastwest;whiteSpace=wrap;html=1;" parent="d3Y048JEVlbYMzD7flnL-41" vertex="1">
          <mxGeometry y="268.47619047619054" width="520" height="28.952380952380963" as="geometry" />
        </mxCell>
        <mxCell id="oqEVKLC-qFjsT6lovD80-1" value="+getMyMatchEnemy():ResponseEntity&amp;lt;Long&amp;gt;" style="text;strokeColor=none;fillColor=#FFFFFF;align=left;verticalAlign=top;spacingLeft=4;spacingRight=4;overflow=hidden;rotatable=0;points=[[0,0.5],[1,0.5]];portConstraint=eastwest;whiteSpace=wrap;html=1;" parent="d3Y048JEVlbYMzD7flnL-41" vertex="1">
          <mxGeometry y="297.4285714285715" width="520" height="28.952380952380963" as="geometry" />
        </mxCell>
        <mxCell id="oqEVKLC-qFjsT6lovD80-2" value="+surrender():void" style="text;strokeColor=none;fillColor=#FFFFFF;align=left;verticalAlign=top;spacingLeft=4;spacingRight=4;overflow=hidden;rotatable=0;points=[[0,0.5],[1,0.5]];portConstraint=eastwest;whiteSpace=wrap;html=1;" parent="d3Y048JEVlbYMzD7flnL-41" vertex="1">
          <mxGeometry y="326.38095238095246" width="520" height="28.952380952380963" as="geometry" />
        </mxCell>
        <mxCell id="oqEVKLC-qFjsT6lovD80-16" value="+getMyCurrentFrame(frameID:int):ResponseEntity&amp;lt;int[][][]&amp;gt;" style="text;strokeColor=none;fillColor=#FFFFFF;align=left;verticalAlign=top;spacingLeft=4;spacingRight=4;overflow=hidden;rotatable=0;points=[[0,0.5],[1,0.5]];portConstraint=eastwest;whiteSpace=wrap;html=1;" parent="d3Y048JEVlbYMzD7flnL-41" vertex="1">
          <mxGeometry y="355.3333333333334" width="520" height="28.952380952380963" as="geometry" />
        </mxCell>
        <mxCell id="oqEVKLC-qFjsT6lovD80-17" value="+makeAMove(from:int, to:int):ResponseEntity&amp;lt;Boolean&amp;gt;" style="text;strokeColor=none;fillColor=#FFFFFF;align=left;verticalAlign=top;spacingLeft=4;spacingRight=4;overflow=hidden;rotatable=0;points=[[0,0.5],[1,0.5]];portConstraint=eastwest;whiteSpace=wrap;html=1;" parent="d3Y048JEVlbYMzD7flnL-41" vertex="1">
          <mxGeometry y="384.2857142857144" width="520" height="28.952380952380963" as="geometry" />
        </mxCell>
        <mxCell id="oqEVKLC-qFjsT6lovD80-18" value="+transofrmBauer(id:int):ResponseEntity&amp;lt;Boolean&amp;gt;" style="text;strokeColor=none;fillColor=#FFFFFF;align=left;verticalAlign=top;spacingLeft=4;spacingRight=4;overflow=hidden;rotatable=0;points=[[0,0.5],[1,0.5]];portConstraint=eastwest;whiteSpace=wrap;html=1;" parent="d3Y048JEVlbYMzD7flnL-41" vertex="1">
          <mxGeometry y="413.23809523809535" width="520" height="28.952380952380963" as="geometry" />
        </mxCell>
        <mxCell id="oqEVKLC-qFjsT6lovD80-19" value="+getCurrentStreamingFrame(gameId:long, frameId:long, userId:long):ResponseEntity&amp;lt;int[][][]&amp;gt;" style="text;strokeColor=none;fillColor=#FFFFFF;align=left;verticalAlign=top;spacingLeft=4;spacingRight=4;overflow=hidden;rotatable=0;points=[[0,0.5],[1,0.5]];portConstraint=eastwest;whiteSpace=wrap;html=1;" parent="d3Y048JEVlbYMzD7flnL-41" vertex="1">
          <mxGeometry y="442.1904761904763" width="520" height="28.95" as="geometry" />
        </mxCell>
        <mxCell id="oqEVKLC-qFjsT6lovD80-20" value="+allMatches():ResponseEntity&amp;lt;List&amp;lt;ChessGame&amp;gt;&amp;gt;" style="text;strokeColor=none;fillColor=#FFFFFF;align=left;verticalAlign=top;spacingLeft=4;spacingRight=4;overflow=hidden;rotatable=0;points=[[0,0.5],[1,0.5]];portConstraint=eastwest;whiteSpace=wrap;html=1;" parent="d3Y048JEVlbYMzD7flnL-41" vertex="1">
          <mxGeometry y="471.1404761904763" width="520" height="28.95" as="geometry" />
        </mxCell>
        <mxCell id="FsZoKDv0sJ-615UwoabP-11" value="+pgn(pgnId:long):ResponseEntity&amp;lt;PGN&amp;lt;&amp;gt;" style="text;strokeColor=none;fillColor=#FFFFFF;align=left;verticalAlign=top;spacingLeft=4;spacingRight=4;overflow=hidden;rotatable=0;points=[[0,0.5],[1,0.5]];portConstraint=eastwest;whiteSpace=wrap;html=1;" vertex="1" parent="d3Y048JEVlbYMzD7flnL-41">
          <mxGeometry y="500.0904761904763" width="520" height="28.95" as="geometry" />
        </mxCell>
        <mxCell id="d3Y048JEVlbYMzD7flnL-52" value="&amp;lt;&amp;lt;interface&amp;gt;&amp;gt;&lt;br&gt;MatchRequestRepository" style="swimlane;fontStyle=0;childLayout=stackLayout;horizontal=1;startSize=26;fillColor=#FFFFFF;horizontalStack=0;resizeParent=1;resizeParentMax=0;resizeLast=0;collapsible=1;marginBottom=0;whiteSpace=wrap;html=1;" parent="1" vertex="1">
          <mxGeometry x="-1595.3846153846155" y="396" width="138.2051282051282" height="96.57142857142858" as="geometry" />
        </mxCell>
        <mxCell id="d3Y048JEVlbYMzD7flnL-53" value="+ field: type" style="text;strokeColor=none;fillColor=#FFFFFF;align=left;verticalAlign=top;spacingLeft=4;spacingRight=4;overflow=hidden;rotatable=0;points=[[0,0.5],[1,0.5]];portConstraint=eastwest;whiteSpace=wrap;html=1;" parent="d3Y048JEVlbYMzD7flnL-52" vertex="1">
          <mxGeometry y="26" width="138.2051282051282" height="23.523809523809526" as="geometry" />
        </mxCell>
        <mxCell id="d3Y048JEVlbYMzD7flnL-54" value="+ field: type" style="text;strokeColor=none;fillColor=#FFFFFF;align=left;verticalAlign=top;spacingLeft=4;spacingRight=4;overflow=hidden;rotatable=0;points=[[0,0.5],[1,0.5]];portConstraint=eastwest;whiteSpace=wrap;html=1;" parent="d3Y048JEVlbYMzD7flnL-52" vertex="1">
          <mxGeometry y="49.523809523809526" width="138.2051282051282" height="23.523809523809526" as="geometry" />
        </mxCell>
        <mxCell id="d3Y048JEVlbYMzD7flnL-55" value="+ field: type" style="text;strokeColor=none;fillColor=#FFFFFF;align=left;verticalAlign=top;spacingLeft=4;spacingRight=4;overflow=hidden;rotatable=0;points=[[0,0.5],[1,0.5]];portConstraint=eastwest;whiteSpace=wrap;html=1;" parent="d3Y048JEVlbYMzD7flnL-52" vertex="1">
          <mxGeometry y="73.04761904761905" width="138.2051282051282" height="23.523809523809526" as="geometry" />
        </mxCell>
        <mxCell id="d3Y048JEVlbYMzD7flnL-56" style="edgeStyle=orthogonalEdgeStyle;rounded=0;orthogonalLoop=1;jettySize=auto;html=1;exitX=0;exitY=0;exitDx=0;exitDy=0;entryX=0.475;entryY=1.019;entryDx=0;entryDy=0;entryPerimeter=0;fillColor=#FFFFFF;" parent="1" source="d3Y048JEVlbYMzD7flnL-23" target="d3Y048JEVlbYMzD7flnL-55" edge="1">
          <mxGeometry relative="1" as="geometry" />
        </mxCell>
        <mxCell id="d3Y048JEVlbYMzD7flnL-57" value="1" style="edgeLabel;html=1;align=center;verticalAlign=middle;resizable=0;points=[];fillColor=#FFFFFF;" parent="d3Y048JEVlbYMzD7flnL-56" vertex="1" connectable="0">
          <mxGeometry x="-0.7743" y="-2" relative="1" as="geometry">
            <mxPoint as="offset" />
          </mxGeometry>
        </mxCell>
        <mxCell id="d3Y048JEVlbYMzD7flnL-58" value="1" style="edgeLabel;html=1;align=center;verticalAlign=middle;resizable=0;points=[];fillColor=#FFFFFF;" parent="d3Y048JEVlbYMzD7flnL-56" vertex="1" connectable="0">
          <mxGeometry x="0.7795" y="2" relative="1" as="geometry">
            <mxPoint as="offset" />
          </mxGeometry>
        </mxCell>
        <mxCell id="d3Y048JEVlbYMzD7flnL-64" style="edgeStyle=orthogonalEdgeStyle;rounded=0;orthogonalLoop=1;jettySize=auto;html=1;entryX=0.504;entryY=1.008;entryDx=0;entryDy=0;entryPerimeter=0;" parent="1" source="d3Y048JEVlbYMzD7flnL-41" target="oqEVKLC-qFjsT6lovD80-34" edge="1">
          <mxGeometry relative="1" as="geometry" />
        </mxCell>
        <mxCell id="d3Y048JEVlbYMzD7flnL-65" value="1" style="edgeLabel;html=1;align=center;verticalAlign=middle;resizable=0;points=[];" parent="d3Y048JEVlbYMzD7flnL-64" vertex="1" connectable="0">
          <mxGeometry x="0.4592" y="-1" relative="1" as="geometry">
            <mxPoint as="offset" />
          </mxGeometry>
        </mxCell>
        <mxCell id="d3Y048JEVlbYMzD7flnL-66" value="1" style="edgeLabel;html=1;align=center;verticalAlign=middle;resizable=0;points=[];" parent="d3Y048JEVlbYMzD7flnL-64" vertex="1" connectable="0">
          <mxGeometry x="-0.7284" relative="1" as="geometry">
            <mxPoint as="offset" />
          </mxGeometry>
        </mxCell>
        <mxCell id="d3Y048JEVlbYMzD7flnL-59" value="MatchRequest" style="swimlane;fontStyle=1;align=center;verticalAlign=top;childLayout=stackLayout;horizontal=1;startSize=26;horizontalStack=0;resizeParent=1;resizeParentMax=0;resizeLast=0;collapsible=1;marginBottom=0;whiteSpace=wrap;html=1;fillColor=#FFFFFF;" parent="1" vertex="1">
          <mxGeometry x="-1163.9871794871794" y="396" width="157.94871794871796" height="80.28571428571429" as="geometry" />
        </mxCell>
        <mxCell id="d3Y048JEVlbYMzD7flnL-60" value="-RequestorID:Long" style="text;strokeColor=none;fillColor=#FFFFFF;align=left;verticalAlign=top;spacingLeft=4;spacingRight=4;overflow=hidden;rotatable=0;points=[[0,0.5],[1,0.5]];portConstraint=eastwest;whiteSpace=wrap;html=1;" parent="d3Y048JEVlbYMzD7flnL-59" vertex="1">
          <mxGeometry y="26" width="157.94871794871796" height="23.523809523809526" as="geometry" />
        </mxCell>
        <mxCell id="d3Y048JEVlbYMzD7flnL-61" value="-InvitedID:Long" style="text;strokeColor=none;fillColor=#FFFFFF;align=left;verticalAlign=top;spacingLeft=4;spacingRight=4;overflow=hidden;rotatable=0;points=[[0,0.5],[1,0.5]];portConstraint=eastwest;whiteSpace=wrap;html=1;" parent="d3Y048JEVlbYMzD7flnL-59" vertex="1">
          <mxGeometry y="49.523809523809526" width="157.94871794871796" height="23.523809523809526" as="geometry" />
        </mxCell>
        <mxCell id="d3Y048JEVlbYMzD7flnL-62" value="" style="line;strokeWidth=1;fillColor=#FFFFFF;align=left;verticalAlign=middle;spacingTop=-1;spacingLeft=3;spacingRight=3;rotatable=0;labelPosition=right;points=[];portConstraint=eastwest;strokeColor=inherit;" parent="d3Y048JEVlbYMzD7flnL-59" vertex="1">
          <mxGeometry y="73.04761904761905" width="157.94871794871796" height="7.238095238095242" as="geometry" />
        </mxCell>
        <mxCell id="oqEVKLC-qFjsT6lovD80-41" value="&amp;lt;&amp;lt;interface&amp;gt;&amp;gt;&lt;br&gt;UserRepository" style="swimlane;fontStyle=0;childLayout=stackLayout;horizontal=1;startSize=26;fillColor=#FFFFFF;horizontalStack=0;resizeParent=1;resizeParentMax=0;resizeLast=0;collapsible=1;marginBottom=0;whiteSpace=wrap;html=1;" parent="1" vertex="1">
          <mxGeometry x="-1029.9969230769232" y="500" width="138.2051282051282" height="96.57142857142858" as="geometry" />
        </mxCell>
        <mxCell id="oqEVKLC-qFjsT6lovD80-42" value="+ field: type" style="text;strokeColor=none;fillColor=#FFFFFF;align=left;verticalAlign=top;spacingLeft=4;spacingRight=4;overflow=hidden;rotatable=0;points=[[0,0.5],[1,0.5]];portConstraint=eastwest;whiteSpace=wrap;html=1;" parent="oqEVKLC-qFjsT6lovD80-41" vertex="1">
          <mxGeometry y="26" width="138.2051282051282" height="23.523809523809526" as="geometry" />
        </mxCell>
        <mxCell id="oqEVKLC-qFjsT6lovD80-43" value="+ field: type" style="text;strokeColor=none;fillColor=#FFFFFF;align=left;verticalAlign=top;spacingLeft=4;spacingRight=4;overflow=hidden;rotatable=0;points=[[0,0.5],[1,0.5]];portConstraint=eastwest;whiteSpace=wrap;html=1;" parent="oqEVKLC-qFjsT6lovD80-41" vertex="1">
          <mxGeometry y="49.523809523809526" width="138.2051282051282" height="23.523809523809526" as="geometry" />
        </mxCell>
        <mxCell id="oqEVKLC-qFjsT6lovD80-44" value="+ field: type" style="text;strokeColor=none;fillColor=#FFFFFF;align=left;verticalAlign=top;spacingLeft=4;spacingRight=4;overflow=hidden;rotatable=0;points=[[0,0.5],[1,0.5]];portConstraint=eastwest;whiteSpace=wrap;html=1;" parent="oqEVKLC-qFjsT6lovD80-41" vertex="1">
          <mxGeometry y="73.04761904761905" width="138.2051282051282" height="23.523809523809526" as="geometry" />
        </mxCell>
        <mxCell id="oqEVKLC-qFjsT6lovD80-45" value="1" style="edgeStyle=orthogonalEdgeStyle;rounded=0;orthogonalLoop=1;jettySize=auto;html=1;exitX=0.885;exitY=0.001;exitDx=0;exitDy=0;exitPerimeter=0;" parent="1" source="d3Y048JEVlbYMzD7flnL-23" target="oqEVKLC-qFjsT6lovD80-41" edge="1">
          <mxGeometry x="-0.815" relative="1" as="geometry">
            <mxPoint as="offset" />
          </mxGeometry>
        </mxCell>
        <mxCell id="oqEVKLC-qFjsT6lovD80-46" value="1" style="edgeLabel;html=1;align=center;verticalAlign=middle;resizable=0;points=[];" parent="oqEVKLC-qFjsT6lovD80-45" vertex="1" connectable="0">
          <mxGeometry x="0.5197" y="-1" relative="1" as="geometry">
            <mxPoint as="offset" />
          </mxGeometry>
        </mxCell>
        <mxCell id="FsZoKDv0sJ-615UwoabP-1" value="&amp;lt;&amp;lt;interface&amp;gt;&amp;gt;&lt;br&gt;PgnRepository" style="swimlane;fontStyle=0;childLayout=stackLayout;horizontal=1;startSize=26;fillColor=#FFFFFF;horizontalStack=0;resizeParent=1;resizeParentMax=0;resizeLast=0;collapsible=1;marginBottom=0;whiteSpace=wrap;html=1;" vertex="1" parent="1">
          <mxGeometry x="-999.9969230769232" y="660" width="138.2051282051282" height="96.57142857142858" as="geometry" />
        </mxCell>
        <mxCell id="FsZoKDv0sJ-615UwoabP-2" value="+ field: type" style="text;strokeColor=none;fillColor=#FFFFFF;align=left;verticalAlign=top;spacingLeft=4;spacingRight=4;overflow=hidden;rotatable=0;points=[[0,0.5],[1,0.5]];portConstraint=eastwest;whiteSpace=wrap;html=1;" vertex="1" parent="FsZoKDv0sJ-615UwoabP-1">
          <mxGeometry y="26" width="138.2051282051282" height="23.523809523809526" as="geometry" />
        </mxCell>
        <mxCell id="FsZoKDv0sJ-615UwoabP-3" value="+ field: type" style="text;strokeColor=none;fillColor=#FFFFFF;align=left;verticalAlign=top;spacingLeft=4;spacingRight=4;overflow=hidden;rotatable=0;points=[[0,0.5],[1,0.5]];portConstraint=eastwest;whiteSpace=wrap;html=1;" vertex="1" parent="FsZoKDv0sJ-615UwoabP-1">
          <mxGeometry y="49.523809523809526" width="138.2051282051282" height="23.523809523809526" as="geometry" />
        </mxCell>
        <mxCell id="FsZoKDv0sJ-615UwoabP-4" value="+ field: type" style="text;strokeColor=none;fillColor=#FFFFFF;align=left;verticalAlign=top;spacingLeft=4;spacingRight=4;overflow=hidden;rotatable=0;points=[[0,0.5],[1,0.5]];portConstraint=eastwest;whiteSpace=wrap;html=1;" vertex="1" parent="FsZoKDv0sJ-615UwoabP-1">
          <mxGeometry y="73.04761904761905" width="138.2051282051282" height="23.523809523809526" as="geometry" />
        </mxCell>
        <mxCell id="FsZoKDv0sJ-615UwoabP-5" style="edgeStyle=orthogonalEdgeStyle;rounded=0;orthogonalLoop=1;jettySize=auto;html=1;entryX=0;entryY=0.25;entryDx=0;entryDy=0;" edge="1" parent="1" source="d3Y048JEVlbYMzD7flnL-25" target="FsZoKDv0sJ-615UwoabP-1">
          <mxGeometry relative="1" as="geometry" />
        </mxCell>
        <mxCell id="FsZoKDv0sJ-615UwoabP-6" value="1" style="edgeLabel;html=1;align=center;verticalAlign=middle;resizable=0;points=[];" vertex="1" connectable="0" parent="FsZoKDv0sJ-615UwoabP-5">
          <mxGeometry x="-0.6444" y="1" relative="1" as="geometry">
            <mxPoint as="offset" />
          </mxGeometry>
        </mxCell>
        <mxCell id="FsZoKDv0sJ-615UwoabP-7" value="1" style="edgeLabel;html=1;align=center;verticalAlign=middle;resizable=0;points=[];" vertex="1" connectable="0" parent="FsZoKDv0sJ-615UwoabP-5">
          <mxGeometry x="0.5802" relative="1" as="geometry">
            <mxPoint as="offset" />
          </mxGeometry>
        </mxCell>
        <mxCell id="FsZoKDv0sJ-615UwoabP-12" value="PGN" style="swimlane;fontStyle=1;align=center;verticalAlign=top;childLayout=stackLayout;horizontal=1;startSize=26;horizontalStack=0;resizeParent=1;resizeParentMax=0;resizeLast=0;collapsible=1;marginBottom=0;whiteSpace=wrap;html=1;" vertex="1" parent="1">
          <mxGeometry x="-1030" y="880" width="160" height="86" as="geometry" />
        </mxCell>
        <mxCell id="FsZoKDv0sJ-615UwoabP-13" value="- pgnId:long" style="text;strokeColor=none;fillColor=none;align=left;verticalAlign=top;spacingLeft=4;spacingRight=4;overflow=hidden;rotatable=0;points=[[0,0.5],[1,0.5]];portConstraint=eastwest;whiteSpace=wrap;html=1;" vertex="1" parent="FsZoKDv0sJ-615UwoabP-12">
          <mxGeometry y="26" width="160" height="26" as="geometry" />
        </mxCell>
        <mxCell id="FsZoKDv0sJ-615UwoabP-16" value="- pgnInfo:String" style="text;strokeColor=none;fillColor=none;align=left;verticalAlign=top;spacingLeft=4;spacingRight=4;overflow=hidden;rotatable=0;points=[[0,0.5],[1,0.5]];portConstraint=eastwest;whiteSpace=wrap;html=1;" vertex="1" parent="FsZoKDv0sJ-615UwoabP-12">
          <mxGeometry y="52" width="160" height="26" as="geometry" />
        </mxCell>
        <mxCell id="FsZoKDv0sJ-615UwoabP-14" value="" style="line;strokeWidth=1;fillColor=none;align=left;verticalAlign=middle;spacingTop=-1;spacingLeft=3;spacingRight=3;rotatable=0;labelPosition=right;points=[];portConstraint=eastwest;strokeColor=inherit;" vertex="1" parent="FsZoKDv0sJ-615UwoabP-12">
          <mxGeometry y="78" width="160" height="8" as="geometry" />
        </mxCell>
        <mxCell id="FsZoKDv0sJ-615UwoabP-18" style="edgeStyle=orthogonalEdgeStyle;rounded=0;orthogonalLoop=1;jettySize=auto;html=1;entryX=0.25;entryY=0;entryDx=0;entryDy=0;" edge="1" parent="1" source="d3Y048JEVlbYMzD7flnL-29" target="FsZoKDv0sJ-615UwoabP-12">
          <mxGeometry relative="1" as="geometry" />
        </mxCell>
      </root>
    </mxGraphModel>
  </diagram>
</mxfile>
